<?xml version="1.0" encoding="UTF-8" standalone="no"?><!DOCTYPE svg PUBLIC "-//W3C//DTD SVG 1.1//EN" "http://www.w3.org/Graphics/SVG/1.1/DTD/svg11.dtd"><svg width="100%" height="100%" viewBox="0 0 24 24" version="1.1" xmlns="http://www.w3.org/2000/svg" xmlns:xlink="http://www.w3.org/1999/xlink" xml:space="preserve" xmlns:serif="http://www.serif.com/" style="fill-rule:evenodd;clip-rule:evenodd;stroke-linejoin:round;stroke-miterlimit:1.41421;"><path d="M10.5,16.5c3.292,0 6,-2.708 6,-6c0,-3.292 -2.708,-6 -6,-6c-3.292,0 -6,2.708 -6,6c0,3.292 2.708,6 6,6Zm6.32,-1.094l3.58,3.58c0.195,0.188 0.305,0.448 0.305,0.719c0,0.548 -0.452,1 -1,1c-0.272,0 -0.532,-0.111 -0.72,-0.306l-3.58,-3.58c-1.403,1.089 -3.129,1.681 -4.905,1.681c-4.389,0 -8,-3.612 -8,-8c0,-4.389 3.611,-8 8,-8c4.388,0 8,3.611 8,8c0,1.776 -0.592,3.502 -1.681,4.905l0.001,0.001Z" style="fill:#fff;fill-rule:nonzero;"/></svg>